<svg width="40" height="40" viewBox="0 0 40 40" fill="none" xmlns="http://www.w3.org/2000/svg">
<mask id="path-1-inside-1_271_875" fill="white">
<path d="M31.7 8.29155C29.3849 5.97755 26.4357 4.40198 23.2252 3.7641C20.0147 3.12621 16.6872 3.45465 13.6634 4.70788C10.6396 5.96111 8.0553 8.08285 6.23732 10.8048C4.41935 13.5267 3.44934 16.7267 3.44995 19.9999C3.44995 24.39 5.19334 28.6004 8.29683 31.7054C11.4003 34.8105 15.6099 36.556 20 36.5582C22.1724 36.5591 24.3241 36.1345 26.3333 35.3082C28.3361 34.4628 30.158 33.2407 31.7 31.7082C33.2377 30.1707 34.4575 28.3454 35.2897 26.3365C36.1219 24.3276 36.5503 22.1744 36.5503 19.9999C36.5503 17.8254 36.1219 15.6722 35.2897 13.6633C34.4575 11.6543 33.2377 9.82902 31.7 8.29155ZM30.5333 30.5249C28.15 32.9183 25.0229 34.429 21.6666 34.8082V23.8749H24.8C25.242 23.8749 25.6659 23.6993 25.9785 23.3867C26.291 23.0742 26.4666 22.6502 26.4666 22.2082C26.4666 21.7662 26.291 21.3423 25.9785 21.0297C25.6659 20.7171 25.242 20.5415 24.8 20.5415H21.6666V15.9749C21.6666 15.5329 21.8422 15.1089 22.1548 14.7964C22.4673 14.4838 22.8913 14.3082 23.3333 14.3082H25.3333C25.7753 14.3082 26.1992 14.1326 26.5118 13.8201C26.8244 13.5075 27 13.0836 27 12.6416C27 12.1995 26.8244 11.7756 26.5118 11.463C26.1992 11.1505 25.7753 10.9749 25.3333 10.9749H22.5C21.3949 10.9749 20.3351 11.4139 19.5537 12.1953C18.7723 12.9767 18.3333 14.0365 18.3333 15.1416V20.5415H15.2166C14.7746 20.5415 14.3507 20.7171 14.0381 21.0297C13.7255 21.3423 13.55 21.7662 13.55 22.2082C13.55 22.6502 13.7255 23.0742 14.0381 23.3867C14.3507 23.6993 14.7746 23.8749 15.2166 23.8749H18.3333V34.8082C15.2381 34.4551 12.3321 33.1385 10.0257 31.0443C7.71932 28.9502 6.12914 26.1844 5.47978 23.1375C4.83043 20.0907 5.15471 16.9169 6.40684 14.0643C7.65896 11.2118 9.77563 8.82468 12.4579 7.24025C15.1401 5.65582 18.2523 4.95411 21.355 5.23425C24.4576 5.51439 27.3938 6.76221 29.7489 8.80146C32.104 10.8407 33.7588 13.5683 34.4797 16.599C35.2007 19.6297 34.9512 22.8103 33.7666 25.6915C33.0121 27.4969 31.914 29.1385 30.5333 30.5249Z"/>
</mask>
<path d="M31.7 8.29155C29.3849 5.97755 26.4357 4.40198 23.2252 3.7641C20.0147 3.12621 16.6872 3.45465 13.6634 4.70788C10.6396 5.96111 8.0553 8.08285 6.23732 10.8048C4.41935 13.5267 3.44934 16.7267 3.44995 19.9999C3.44995 24.39 5.19334 28.6004 8.29683 31.7054C11.4003 34.8105 15.6099 36.556 20 36.5582C22.1724 36.5591 24.3241 36.1345 26.3333 35.3082C28.3361 34.4628 30.158 33.2407 31.7 31.7082C33.2377 30.1707 34.4575 28.3454 35.2897 26.3365C36.1219 24.3276 36.5503 22.1744 36.5503 19.9999C36.5503 17.8254 36.1219 15.6722 35.2897 13.6633C34.4575 11.6543 33.2377 9.82902 31.7 8.29155ZM30.5333 30.5249C28.15 32.9183 25.0229 34.429 21.6666 34.8082V23.8749H24.8C25.242 23.8749 25.6659 23.6993 25.9785 23.3867C26.291 23.0742 26.4666 22.6502 26.4666 22.2082C26.4666 21.7662 26.291 21.3423 25.9785 21.0297C25.6659 20.7171 25.242 20.5415 24.8 20.5415H21.6666V15.9749C21.6666 15.5329 21.8422 15.1089 22.1548 14.7964C22.4673 14.4838 22.8913 14.3082 23.3333 14.3082H25.3333C25.7753 14.3082 26.1992 14.1326 26.5118 13.8201C26.8244 13.5075 27 13.0836 27 12.6416C27 12.1995 26.8244 11.7756 26.5118 11.463C26.1992 11.1505 25.7753 10.9749 25.3333 10.9749H22.5C21.3949 10.9749 20.3351 11.4139 19.5537 12.1953C18.7723 12.9767 18.3333 14.0365 18.3333 15.1416V20.5415H15.2166C14.7746 20.5415 14.3507 20.7171 14.0381 21.0297C13.7255 21.3423 13.55 21.7662 13.55 22.2082C13.55 22.6502 13.7255 23.0742 14.0381 23.3867C14.3507 23.6993 14.7746 23.8749 15.2166 23.8749H18.3333V34.8082C15.2381 34.4551 12.3321 33.1385 10.0257 31.0443C7.71932 28.9502 6.12914 26.1844 5.47978 23.1375C4.83043 20.0907 5.15471 16.9169 6.40684 14.0643C7.65896 11.2118 9.77563 8.82468 12.4579 7.24025C15.1401 5.65582 18.2523 4.95411 21.355 5.23425C24.4576 5.51439 27.3938 6.76221 29.7489 8.80146C32.104 10.8407 33.7588 13.5683 34.4797 16.599C35.2007 19.6297 34.9512 22.8103 33.7666 25.6915C33.0121 27.4969 31.914 29.1385 30.5333 30.5249Z" fill="#393939"/>
<path d="M31.7 8.29155L102.405 -62.4252L102.395 -62.4349L31.7 8.29155ZM3.44995 19.9999L103.45 19.9999V19.9905V19.9812L3.44995 19.9999ZM20 36.5582L19.9496 136.558H19.9571L20 36.5582ZM26.3333 35.3082L64.3666 127.793L64.7952 127.617L65.2221 127.437L26.3333 35.3082ZM31.7 31.7082L102.191 102.637L102.298 102.531L102.405 102.425L31.7 31.7082ZM36.5503 19.9999H-63.4497H36.5503ZM30.5333 30.5249L-40.3232 -40.0397L-40.3284 -40.0345L30.5333 30.5249ZM21.6666 34.8082H-78.3334V146.743L32.8938 134.176L21.6666 34.8082ZM21.6666 23.8749V-76.1251H-78.3334V23.8749H21.6666ZM21.6666 20.5415H-78.3334V120.542H21.6666V20.5415ZM23.3333 14.3082V-85.6918V14.3082ZM22.5 10.9749V-89.0251V10.9749ZM18.3333 20.5415V120.542H118.333V20.5415H18.3333ZM18.3333 23.8749H118.333V-76.1251H18.3333V23.8749ZM18.3333 34.8082L6.99806 134.164L118.333 146.866V34.8082H18.3333ZM33.7666 25.6915L126.034 64.2509L126.145 63.9844L126.255 63.7173L33.7666 25.6915ZM102.395 -62.4349C86.0916 -78.7309 65.3223 -89.8264 42.7132 -94.3186L3.73722 101.847C-12.4509 98.6304 -27.3218 90.6859 -38.9949 79.018L102.395 -62.4349ZM42.7132 -94.3186C20.1041 -98.8108 -3.32934 -96.4978 -24.6239 -87.6722L51.9507 97.088C36.7038 103.407 19.9254 105.063 3.73722 101.847L42.7132 -94.3186ZM-24.6239 -87.6722C-45.9185 -78.8466 -64.1178 -63.9047 -76.9205 -44.7359L89.3952 66.3455C80.2284 80.0704 67.1977 90.7688 51.9507 97.088L-24.6239 -87.6722ZM-76.9205 -44.7359C-89.7233 -25.5671 -96.5544 -3.03244 -96.55 20.0186L103.45 19.9812C103.453 36.4857 98.562 52.6206 89.3952 66.3455L-76.9205 -44.7359ZM-96.55 19.9999C-96.55 50.9029 -84.2779 80.5411 -62.4316 102.398L79.0253 -38.9874C94.6646 -23.3403 103.45 -2.12295 103.45 19.9999L-96.55 19.9999ZM-62.4316 102.398C-40.5854 124.256 -10.9534 136.543 19.9496 136.558L20.0503 -63.4418C42.1731 -63.4306 63.386 -54.6346 79.0253 -38.9874L-62.4316 102.398ZM19.9571 136.558C35.1906 136.565 50.2779 133.587 64.3666 127.793L-11.7 -57.1768C-1.62975 -61.318 9.15426 -63.4464 20.0428 -63.4418L19.9571 136.558ZM65.2221 127.437C79.019 121.613 91.5693 113.194 102.191 102.637L-38.7916 -39.221C-31.2533 -46.7127 -22.3467 -52.6873 -12.5555 -56.8203L65.2221 127.437ZM102.405 102.425C113.23 91.6014 121.817 78.7514 127.676 64.6088L-57.0966 -11.9358C-52.9023 -22.0605 -46.7546 -31.2599 -39.0047 -39.0085L102.405 102.425ZM127.676 64.6088C133.535 50.4662 136.55 35.3081 136.55 19.9999H-63.4497C-63.4497 9.04068 -61.2909 -1.81111 -57.0966 -11.9358L127.676 64.6088ZM136.55 19.9999C136.55 4.6917 133.535 -10.4665 127.676 -24.609L-57.0966 51.9356C-61.2909 41.8109 -63.4497 30.9591 -63.4497 19.9999H136.55ZM127.676 -24.609C121.817 -38.7516 113.23 -51.6016 102.405 -62.4252L-39.0047 79.0083C-46.7546 71.2597 -52.9023 62.0603 -57.0966 51.9356L127.676 -24.609ZM-40.3284 -40.0345C-26.6827 -53.7386 -8.7776 -62.3883 10.4395 -64.5595L32.8938 134.176C58.8234 131.246 82.9828 119.575 101.395 101.084L-40.3284 -40.0345ZM121.667 34.8082V23.8749H-78.3334V34.8082H121.667ZM21.6666 123.875H24.8V-76.1251H21.6666V123.875ZM24.8 123.875C51.7637 123.875 77.623 113.164 96.6891 94.0974L-44.7322 -47.324C-26.2912 -65.765 -1.27972 -76.1251 24.8 -76.1251V123.875ZM96.6891 94.0974C115.755 75.0312 126.467 49.1719 126.467 22.2082H-73.5334C-73.5334 -3.87144 -63.1733 -28.8829 -44.7322 -47.324L96.6891 94.0974ZM126.467 22.2082C126.467 -4.75538 115.755 -30.6147 96.6891 -49.681L-44.7322 91.7404C-63.1734 73.2992 -73.5334 48.2878 -73.5334 22.2082H126.467ZM96.6891 -49.681C77.623 -68.7471 51.7637 -79.4585 24.8 -79.4585V120.542C-1.27972 120.542 -26.2912 110.181 -44.7322 91.7404L96.6891 -49.681ZM24.8 -79.4585H21.6666V120.542H24.8V-79.4585ZM121.667 20.5415V15.9749H-78.3334V20.5415H121.667ZM121.667 15.9749C121.667 42.0545 111.307 67.066 92.8654 85.5071L-48.5559 -55.9143C-67.6221 -36.8481 -78.3334 -10.9888 -78.3334 15.9749H121.667ZM92.8654 85.5071C74.4244 103.948 49.413 114.308 23.3333 114.308V-85.6918C-3.63044 -85.6918 -29.4897 -74.9805 -48.5559 -55.9143L92.8654 85.5071ZM23.3333 114.308H25.3333V-85.6918H23.3333V114.308ZM25.3333 114.308C52.2972 114.308 78.1564 103.597 97.2225 84.5307L-44.1989 -56.8906C-25.7579 -75.3316 -0.746529 -85.6918 25.3333 -85.6918V114.308ZM97.2225 84.5307C116.288 65.4648 127 39.6056 127 12.6416H-73C-73 -13.4384 -62.6397 -38.4498 -44.1989 -56.8906L97.2225 84.5307ZM127 12.6416C127 -14.3225 116.288 -40.1817 97.2225 -59.2476L-44.1989 82.1737C-62.6397 63.7329 -73 38.7215 -73 12.6416H127ZM97.2225 -59.2476C78.1564 -78.3138 52.2971 -89.0251 25.3333 -89.0251V110.975C-0.746456 110.975 -25.7579 100.615 -44.1989 82.1737L97.2225 -59.2476ZM25.3333 -89.0251H22.5V110.975H25.3333V-89.0251ZM22.5 -89.0251C-5.12682 -89.0251 -31.622 -78.0504 -51.157 -58.5154L90.2644 82.906C72.2921 100.878 47.9166 110.975 22.5 110.975V-89.0251ZM-51.157 -58.5154C-70.692 -38.9804 -81.6667 -12.4852 -81.6667 15.1416H118.333C118.333 40.5581 108.237 64.9337 90.2644 82.906L-51.157 -58.5154ZM-81.6667 15.1416V20.5415H118.333V15.1416H-81.6667ZM18.3333 -79.4585H15.2166V120.542H18.3333V-79.4585ZM15.2166 -79.4585C-11.747 -79.4585 -37.6064 -68.7472 -56.6726 -49.681L84.7488 91.7404C66.3077 110.181 41.2962 120.542 15.2166 120.542V-79.4585ZM-56.6726 -49.681C-75.7388 -30.6147 -86.4501 -4.75538 -86.4501 22.2082H113.55C113.55 48.2878 103.19 73.2992 84.7488 91.7404L-56.6726 -49.681ZM-86.4501 22.2082C-86.4501 49.1719 -75.7387 75.0312 -56.6726 94.0974L84.7488 -47.324C103.19 -28.8829 113.55 -3.87144 113.55 22.2082H-86.4501ZM-56.6726 94.0974C-37.6064 113.164 -11.747 123.875 15.2166 123.875V-76.1251C41.2962 -76.1251 66.3077 -65.765 84.7488 -47.324L-56.6726 94.0974ZM15.2166 123.875H18.3333V-76.1251H15.2166V123.875ZM-81.6667 23.8749V34.8082H118.333V23.8749H-81.6667ZM29.6685 -64.5473C47.3953 -62.5249 64.0387 -54.9843 77.2478 -42.9907L-57.1964 105.079C-39.3745 121.261 -16.9191 131.435 6.99806 134.164L29.6685 -64.5473ZM77.2478 -42.9907C90.4569 -30.9971 99.5642 -15.1567 103.283 2.2932L-92.3237 43.9819C-87.3059 67.5254 -75.0183 88.8975 -57.1964 105.079L77.2478 -42.9907ZM103.283 2.2932C107.002 19.743 105.145 37.9203 97.9738 54.2575L-85.1601 -26.1288C-94.8355 -4.08659 -97.3414 20.4384 -92.3237 43.9819L103.283 2.2932ZM97.9738 54.2575C90.8026 70.5946 78.68 84.2659 63.3183 93.3403L-38.4025 -78.8598C-59.1287 -66.6166 -75.4847 -48.1711 -85.1601 -26.1288L97.9738 54.2575ZM63.3183 93.3403C47.9565 102.415 30.132 106.434 12.3626 104.829L30.3474 -94.3606C6.37265 -96.5253 -17.6763 -91.1031 -38.4025 -78.8598L63.3183 93.3403ZM12.3626 104.829C-5.40689 103.225 -22.2232 96.0782 -35.7112 84.3989L95.209 -66.796C77.0109 -82.5538 54.3221 -92.1959 30.3474 -94.3606L12.3626 104.829ZM-35.7112 84.3989C-49.1991 72.7197 -58.6768 57.0981 -62.8057 39.7407L131.765 -6.54268C126.194 -29.9615 113.407 -51.0383 95.209 -66.796L-35.7112 84.3989ZM-62.8057 39.7407C-66.9346 22.3833 -65.5059 4.16734 -58.7215 -12.3342L126.255 63.7173C135.408 41.4533 137.336 16.8761 131.765 -6.54268L-62.8057 39.7407ZM-58.5003 -12.8678C-54.2587 -23.0172 -48.0853 -32.2455 -40.3232 -40.0397L101.39 101.089C111.913 90.5224 120.283 78.011 126.034 64.2509L-58.5003 -12.8678Z" fill="#393939" mask="url(#path-1-inside-1_271_875)"/>
</svg>
