<svg width="1051" height="141" viewBox="0 0 1051 141" fill="none" xmlns="http://www.w3.org/2000/svg">
<rect y="7" width="120" height="120" rx="60" fill="#C4C4C4"/>
<rect x="20" y="27" width="80" height="80" rx="40" fill="white"/>
<path d="M64.64 76.32C65.7867 76.32 66.36 76.84 66.36 77.88V79.44C66.36 80.48 65.7867 81 64.64 81H57.56C57.0533 81 56.64 80.88 56.32 80.64C56 80.3733 55.84 79.9733 55.84 79.44V77.88C55.84 77.3467 56 76.96 56.32 76.72C56.64 76.4533 57.0533 76.32 57.56 76.32H58.32V62.36H55C54.52 62.36 54.1067 62.2 53.76 61.88C53.44 61.5333 53.28 61.12 53.28 60.64V59.4C53.28 58.8933 53.44 58.48 53.76 58.16C54.1067 57.84 54.52 57.68 55 57.68H56.56C57.0667 57.68 57.48 57.5333 57.8 57.24C58.1467 56.9467 58.32 56.52 58.32 55.96V54.84C58.32 54.3067 58.4933 53.8667 58.84 53.52C59.1867 53.1733 59.6133 53 60.12 53H62.08C62.6133 53 63.0533 53.1733 63.4 53.52C63.7467 53.8667 63.92 54.3067 63.92 54.84V76.32H64.64Z" fill="black"/>
<rect x="467" y="7" width="120" height="120" rx="60" fill="#C4C4C4"/>
<rect x="487" y="27" width="80" height="80" rx="40" fill="white"/>
<path d="M534.68 73.8C535.213 73.8 535.6 73.96 535.84 74.28C536.107 74.6 536.24 75.0267 536.24 75.56V78.92C536.24 79.5067 536.027 80 535.6 80.4C535.2 80.8 534.693 81 534.08 81H520V80.96L518.08 81C517.547 81 517.107 80.8267 516.76 80.48C516.44 80.1333 516.28 79.6933 516.28 79.16V77.48C516.28 75.88 516.48 74.5333 516.88 73.44C517.307 72.3467 518.04 71.3067 519.08 70.32C520.12 69.3333 521.64 68.2 523.64 66.92C525.347 65.8267 526.613 64.9467 527.44 64.28C528.267 63.6133 528.84 63 529.16 62.44C529.48 61.8533 529.64 61.2 529.64 60.48C529.64 59.52 529.307 58.7467 528.64 58.16C527.973 57.5733 527.08 57.28 525.96 57.28C524.333 57.28 523.227 57.6933 522.64 58.52C522.96 59.0267 523.12 59.64 523.12 60.36C523.12 61.2667 522.813 62.0133 522.2 62.6C521.587 63.16 520.773 63.44 519.76 63.44C518.747 63.44 517.92 63.1067 517.28 62.44C516.64 61.7467 516.32 60.8533 516.32 59.76C516.32 58.4 516.72 57.1733 517.52 56.08C518.32 54.9867 519.44 54.1333 520.88 53.52C522.32 52.9067 523.947 52.6 525.76 52.6C527.6 52.6 529.253 52.9333 530.72 53.6C532.187 54.2667 533.32 55.2 534.12 56.4C534.947 57.5733 535.36 58.92 535.36 60.44C535.36 61.9067 535.12 63.16 534.64 64.2C534.16 65.24 533.293 66.3067 532.04 67.4C530.813 68.4933 528.96 69.84 526.48 71.44C524.8 72.5067 523.653 73.36 523.04 74C522.453 74.64 522.093 75.4133 521.96 76.32L531.56 76.28V75.56C531.56 75.0267 531.68 74.6 531.92 74.28C532.187 73.96 532.587 73.8 533.12 73.8H534.68Z" fill="black"/>
<rect x="931" y="7" width="120" height="120" rx="60" fill="#C4C4C4"/>
<rect x="951" y="27" width="80" height="80" rx="40" fill="white"/>
<path d="M997.56 65.88C998.92 66.44 999.973 67.32 1000.72 68.52C1001.47 69.6933 1001.84 71.0933 1001.84 72.72C1001.84 74.4 1001.41 75.8933 1000.56 77.2C999.707 78.5067 998.48 79.5333 996.88 80.28C995.307 81.0267 993.453 81.4 991.32 81.4C989.373 81.4 987.613 81.1067 986.04 80.52C984.493 79.9067 983.267 79.0667 982.36 78C981.453 76.9067 981 75.6533 981 74.24C981 73.1467 981.307 72.2667 981.92 71.6C982.56 70.9067 983.387 70.56 984.4 70.56C985.413 70.56 986.227 70.84 986.84 71.4C987.453 71.96 987.76 72.7067 987.76 73.64C987.76 74.28 987.627 74.8267 987.36 75.28C988.133 76.24 989.493 76.72 991.44 76.72C992.933 76.72 994.08 76.3467 994.88 75.6C995.707 74.8533 996.12 73.8133 996.12 72.48C996.12 71.28 995.733 70.4 994.96 69.84C994.213 69.2533 993.053 68.96 991.48 68.96H989.96C989.453 68.96 989.04 68.8 988.72 68.48C988.4 68.1333 988.24 67.72 988.24 67.24V66C988.24 65.4933 988.4 65.08 988.72 64.76C989.04 64.44 989.453 64.28 989.96 64.28H991.16C992.493 64.28 993.48 64.0267 994.12 63.52C994.76 62.9867 995.08 62.1067 995.08 60.88C995.08 59.8667 994.72 59.0133 994 58.32C993.28 57.6267 992.253 57.28 990.92 57.28C989.267 57.28 988.147 57.7067 987.56 58.56C987.88 59.0667 988.04 59.6667 988.04 60.36C988.04 61.2667 987.733 62.0133 987.12 62.6C986.507 63.16 985.693 63.44 984.68 63.44C983.667 63.44 982.84 63.1067 982.2 62.44C981.56 61.7467 981.24 60.8533 981.24 59.76C981.24 58.4267 981.653 57.2133 982.48 56.12C983.333 55.0267 984.493 54.1733 985.96 53.56C987.453 52.92 989.12 52.6 990.96 52.6C993.013 52.6 994.773 52.92 996.24 53.56C997.733 54.2 998.867 55.0933 999.64 56.24C1000.41 57.3867 1000.8 58.68 1000.8 60.12C1000.8 61.3733 1000.52 62.4933 999.96 63.48C999.427 64.44 998.627 65.24 997.56 65.88Z" fill="black"/>
<path d="M607 67.0526V67.0526C701.335 24.2525 809.132 22.1901 905.036 61.3505L919 67.0526" stroke="black" stroke-width="2" stroke-dasharray="8 8"/>
<path d="M447 73V73C352.714 115.908 244.919 118.093 148.971 79.0414L135 73.3552" stroke="black" stroke-width="2" stroke-dasharray="8 8"/>
</svg>
