<svg width="70" height="56" viewBox="0 0 70 56" fill="none" xmlns="http://www.w3.org/2000/svg">
<circle cx="20" cy="24" r="20" fill="#FFD966"/>
<path d="M26.75 38.6L13.55 25.4C13.35 25.2 13.208 24.9833 13.124 24.75C13.04 24.5167 12.9987 24.2667 13 24C13 23.7333 13.042 23.4833 13.126 23.25C13.21 23.0167 13.3514 22.8 13.55 22.6L26.75 9.4C27.1167 9.03333 27.5754 8.842 28.126 8.826C28.6767 8.81 29.1514 9.00133 29.55 9.4C29.95 9.76667 30.1587 10.2253 30.176 10.776C30.1934 11.3267 30.0014 11.8013 29.6 12.2L19.8 22H42.15C42.7167 22 43.192 22.192 43.576 22.576C43.96 22.96 44.1514 23.4347 44.15 24C44.15 24.5667 43.9587 25.042 43.576 25.426C43.1934 25.81 42.718 26.0013 42.15 26H19.8L29.6 35.8C29.9667 36.1667 30.1587 36.6333 30.176 37.2C30.1934 37.7667 30.0014 38.2333 29.6 38.6C29.2334 39 28.7667 39.2 28.2 39.2C27.6334 39.2 27.15 39 26.75 38.6Z" fill="black"/>
</svg>
