<svg width="32" height="32" viewBox="0 0 32 32" fill="none" xmlns="http://www.w3.org/2000/svg">
<path d="M11.1793 3.30548L10.0321 3.65108C9.01057 3.95913 8.09835 4.55257 7.40276 5.36155C6.70716 6.17053 6.25713 7.16138 6.10565 8.21748C5.63045 11.5263 6.69285 15.3951 9.25445 19.8319C11.8096 24.2575 14.6225 27.1087 17.7185 28.3567C18.7132 28.7576 19.8022 28.8644 20.8559 28.6645C21.9096 28.4645 22.8837 27.9662 23.6625 27.2287L24.5297 26.4063C25.0928 25.8733 25.4432 25.1541 25.5159 24.3822C25.5886 23.6102 25.3786 22.8382 24.9249 22.2095L22.7553 19.2015C22.4619 18.7954 22.0489 18.4913 21.574 18.3317C21.0991 18.1722 20.5863 18.1653 20.1073 18.3119L16.8256 19.3151L16.7409 19.3311C16.3793 19.3839 15.544 18.6015 14.504 16.7999C13.416 14.9151 13.192 13.8127 13.4913 13.5279L15.1601 11.9711C15.7703 11.4022 16.1872 10.6566 16.3522 9.83879C16.5172 9.02099 16.422 8.17206 16.0801 7.41108L15.0208 5.05748C14.7023 4.34923 14.1372 3.78097 13.4307 3.45862C12.7241 3.13628 11.9229 3.08185 11.1793 3.30548ZM13.5633 5.71348L14.6193 8.06708C14.8249 8.52345 14.8824 9.03279 14.7837 9.52353C14.685 10.0143 14.435 10.4617 14.0689 10.8031L12.3953 12.3615C11.3249 13.3759 11.68 15.1071 13.12 17.5999C14.4736 19.9455 15.7088 21.1039 17.0368 20.9023L17.2353 20.8607L20.576 19.8415C20.7357 19.7924 20.9068 19.7946 21.0652 19.8477C21.2236 19.9008 21.3614 20.0021 21.4593 20.1375L23.6289 23.1455C23.856 23.4598 23.9613 23.8459 23.9251 24.2321C23.8889 24.6182 23.7137 24.9781 23.4321 25.2447L22.5633 26.0671C22.007 26.5935 21.3113 26.9492 20.5589 27.0919C19.8064 27.2345 19.0288 27.1582 18.3184 26.8719C15.6017 25.7775 13.0336 23.1743 10.6417 19.0319C8.24325 14.8799 7.27205 11.3487 7.68965 8.44468C7.79775 7.69017 8.11917 6.98225 8.61608 6.40428C9.11299 5.8263 9.76469 5.40233 10.4945 5.18228L11.6417 4.83668C12.0136 4.72492 12.4135 4.75225 12.7667 4.91358C13.12 5.0749 13.4025 5.35921 13.5616 5.71348H13.5633Z" fill="#393939"/>
</svg>
