<svg width="129" height="129" viewBox="0 0 129 129" fill="none" xmlns="http://www.w3.org/2000/svg">
<path d="M80.1773 112.36H69.5274V101.71H80.1773V112.36ZM69.5274 75.0854H58.8775V101.71H69.5274V75.0854ZM112.127 64.4355H101.477V85.7353H112.127V64.4355ZM101.477 53.7855H90.8273V64.4355H101.477V53.7855ZM37.5776 64.4355H26.9276V75.0854H37.5776V64.4355ZM26.9276 53.7855H16.2777V64.4355H26.9276V53.7855ZM64.2024 27.1607H74.8524V16.5107H64.2024V27.1607ZM24.2652 24.4982V40.4731H40.2401V24.4982H24.2652ZM48.2275 48.4606H16.2777V16.5107H48.2275V48.4606ZM24.2652 88.3978V104.373H40.2401V88.3978H24.2652ZM48.2275 112.36H16.2777V80.4104H48.2275V112.36ZM88.1648 24.4982V40.4731H104.14V24.4982H88.1648ZM112.127 48.4606H80.1773V16.5107H112.127V48.4606ZM101.477 101.71V85.7353H80.1773V96.3853H90.8273V112.36H112.127V101.71H101.477ZM90.8273 64.4355H69.5274V75.0854H90.8273V64.4355ZM69.5274 53.7855H37.5776V64.4355H48.2275V75.0854H58.8775V64.4355H69.5274V53.7855ZM74.8524 48.4606V37.8106H64.2024V27.1607H53.5525V48.4606H74.8524ZM36.2463 28.4919H28.2589V36.4794H36.2463V28.4919ZM36.2463 92.3915H28.2589V100.379H36.2463V92.3915ZM100.146 28.4919H92.1585V36.4794H100.146V28.4919Z" fill="#111111"/>
<rect x="0.802072" y="1.03498" width="126.801" height="126.801" stroke="black" stroke-width="0.998432"/>
</svg>
