<svg width="60" height="52" viewBox="0 0 60 52" fill="none" xmlns="http://www.w3.org/2000/svg">
<circle cx="36" cy="24" r="20" fill="#FFD966"/>
<path d="M26.9077 34.6231C26.5077 34.2231 26.3157 33.7398 26.3317 33.1731C26.3477 32.6064 26.5564 32.1231 26.9577 31.7231L32.6077 26.0731H10.3077C9.74108 26.0731 9.26575 25.8811 8.88175 25.4971C8.49775 25.1131 8.30641 24.6384 8.30775 24.0731C8.30775 23.5064 8.49975 23.0311 8.88375 22.6471C9.26775 22.2631 9.74241 22.0718 10.3077 22.0731H32.6077L26.9077 16.3731C26.5077 15.9731 26.3077 15.4978 26.3077 14.9471C26.3077 14.3964 26.5077 13.9218 26.9077 13.5231C27.3077 13.1231 27.7831 12.9231 28.3337 12.9231C28.8844 12.9231 29.3591 13.1231 29.7577 13.5231L38.9077 22.6731C39.1077 22.8731 39.2497 23.0898 39.3337 23.3231C39.4177 23.5564 39.4591 23.8064 39.4577 24.0731C39.4577 24.3398 39.4157 24.5898 39.3317 24.8231C39.2477 25.0564 39.1064 25.2731 38.9077 25.4731L29.7077 34.6731C29.3411 35.0398 28.8831 35.2231 28.3337 35.2231C27.7844 35.2231 27.3091 35.0231 26.9077 34.6231Z" fill="#0E0E0E"/>
</svg>

