<svg width="28" height="24" viewBox="0 0 28 24" fill="none" xmlns="http://www.w3.org/2000/svg">
<path d="M24.48 0.559998C25.0347 0.559998 25.5253 0.773331 25.952 1.2C26.4213 1.62666 26.656 2.096 26.656 2.608C26.656 3.07733 26.4853 3.54666 26.144 4.016C24.992 5.552 24.096 6.96 23.456 8.24C22.816 9.52 22.496 10.5653 22.496 11.376C22.496 11.76 22.5387 12.0373 22.624 12.208C22.752 12.3787 23.008 12.528 23.392 12.656C24.672 13.168 25.6107 13.8293 26.208 14.64C26.848 15.4507 27.168 16.496 27.168 17.776C27.168 19.3973 26.6347 20.6987 25.568 21.68C24.544 22.6613 23.2427 23.152 21.664 23.152C19.8293 23.152 18.3787 22.5547 17.312 21.36C16.288 20.1653 15.776 18.5867 15.776 16.624C15.776 14.32 16.3093 11.9947 17.376 9.648C18.4427 7.30133 20.0427 4.784 22.176 2.096C22.6453 1.49866 23.0507 1.09333 23.392 0.879997C23.7333 0.666664 24.096 0.559998 24.48 0.559998ZM9.44 0.559998C9.99467 0.559998 10.4853 0.773331 10.912 1.2C11.3813 1.62666 11.616 2.096 11.616 2.608C11.616 3.07733 11.4453 3.54666 11.104 4.016C9.952 5.552 9.056 6.96 8.416 8.24C7.776 9.52 7.456 10.5653 7.456 11.376C7.456 11.76 7.49867 12.0373 7.584 12.208C7.712 12.3787 7.968 12.528 8.352 12.656C9.632 13.168 10.5707 13.8293 11.168 14.64C11.808 15.4507 12.128 16.496 12.128 17.776C12.128 19.3973 11.5947 20.6987 10.528 21.68C9.504 22.6613 8.20267 23.152 6.624 23.152C4.78933 23.152 3.33867 22.5547 2.272 21.36C1.248 20.1653 0.736 18.5867 0.736 16.624C0.736 14.32 1.26933 11.9947 2.336 9.648C3.40267 7.30133 5.00267 4.784 7.136 2.096C7.60533 1.49866 8.01067 1.09333 8.352 0.879997C8.69333 0.666664 9.056 0.559998 9.44 0.559998Z" fill="#FCFCFC"/>
</svg>
