<svg width="44" height="44" viewBox="0 0 44 44" fill="none" xmlns="http://www.w3.org/2000/svg">
<path d="M22.0001 36.6665C25.8899 36.6665 29.6204 35.1213 32.371 32.3707C35.1215 29.6202 36.6667 25.8897 36.6667 21.9998C36.6667 18.11 35.1215 14.3795 32.371 11.6289C29.6204 8.8784 25.8899 7.33317 22.0001 7.33317C18.1102 7.33317 14.3797 8.8784 11.6292 11.6289C8.87865 14.3795 7.33341 18.11 7.33341 21.9998C7.33341 25.8897 8.87865 29.6202 11.6292 32.3707C14.3797 35.1213 18.1102 36.6665 22.0001 36.6665ZM22.0001 40.3332C11.8746 40.3332 3.66675 32.1253 3.66675 21.9998C3.66675 11.8743 11.8746 3.6665 22.0001 3.6665C32.1256 3.6665 40.3334 11.8743 40.3334 21.9998C40.3334 32.1253 32.1256 40.3332 22.0001 40.3332Z" fill="#393939"/>
<path d="M31.1668 16.4027C30.4922 16.696 29.768 16.8977 29.0072 16.9857C29.7845 16.5274 30.3785 15.8014 30.6608 14.9379C29.9201 15.3695 29.1119 15.6732 28.2702 15.8362C27.9161 15.4651 27.4902 15.17 27.0183 14.9689C26.5464 14.7678 26.0386 14.6649 25.5257 14.6665C23.4485 14.6665 21.7655 16.3257 21.7655 18.3699C21.7655 18.6595 21.7985 18.9419 21.8627 19.2132C20.3728 19.1424 18.914 18.7619 17.5794 18.0959C16.2447 17.4298 15.0636 16.4929 14.1113 15.3449C13.7769 15.9079 13.6008 16.5508 13.6017 17.2057C13.6017 18.489 14.2672 19.6257 15.2755 20.2875C14.6786 20.2688 14.0946 20.1099 13.5705 19.8237V19.8695C13.5762 20.7302 13.88 21.5623 14.4302 22.2242C14.9804 22.886 15.743 23.3367 16.5882 23.4995C16.0333 23.6462 15.4528 23.6675 14.8887 23.5619C15.1346 24.3023 15.6049 24.9478 16.2344 25.4087C16.8638 25.8696 17.6212 26.1231 18.4013 26.134C17.0629 27.1654 15.4197 27.7226 13.73 27.718C13.4275 27.718 13.1287 27.6997 12.8335 27.6667C14.5577 28.7581 16.5569 29.3361 18.5975 29.3332C25.5165 29.3332 29.2987 23.6902 29.2987 18.7952L29.2858 18.3149C30.0234 17.7965 30.6607 17.1486 31.1668 16.4027Z" fill="#393939"/>
</svg>
